<?xml version="1.0" encoding="UTF-8" standalone="no"?>
<svg width="11px" height="8px" viewBox="0 0 11 8" version="1.1" xmlns="http://www.w3.org/2000/svg" xmlns:xlink="http://www.w3.org/1999/xlink" xmlns:sketch="http://www.bohemiancoding.com/sketch/ns">
    <!-- Generator: Sketch 3.1.1 (8761) - http://www.bohemiancoding.com/sketch -->
    <title>Fill 210 + Oval 1 + Group 3</title>
    <desc>Created with Sketch.</desc>
    <defs></defs>
    <g id="Page-1" stroke="none" stroke-width="1" fill="none" fill-rule="evenodd" sketch:type="MSPage">
        <g id="Fill-210-+-Oval-1-+-Group-3" sketch:type="MSLayerGroup">
            <g id="Fill-210-+-Oval-1" transform="translate(0.278922, 0.000000)" sketch:type="MSShapeGroup">
                <path d="M1.51055414,2.83886153 C1.61058767,2.62835044 2.20973611,2.71076244 2.35076607,2.52844508 C2.61893282,2.18249811 2.93377148,1.9013949 3.29573325,1.68345158 C3.65746942,1.46635019 4.05035667,1.3261766 4.47484617,1.26124694 C4.90015425,1.19653662 5.32932302,1.22219641 5.76317106,1.33844564 C6.1970191,1.45469487 6.58152005,1.64705723 6.91667391,1.91553271 C7.25182777,2.1840082 8.48323375,1.93661319 8.68795577,2.30549659 C8.8924522,2.67522193 8.0649536,3.64175499 8.12340075,4.07521788 C8.1820735,4.50783884 8.15181088,4.94821295 8.0324711,5.39359508 C7.91290573,5.83981913 7.71892687,6.23632561 7.45135311,6.58333384 C7.18355375,6.93118401 6.8678965,7.21206788 6.50661152,7.4274854 C6.14510094,7.64374486 5.95963778,9.01296138 5.53492269,9.07873297 C5.1097564,9.14618842 4.47234496,7.89126637 4.03849692,7.77501714 C3.60464888,7.65876791 3.22014793,7.46640555 2.88485227,7.19518493 C2.54992401,6.92586752 2.27976047,6.60803 2.07481285,6.23998853 C1.86963964,5.87278899 1.73753297,5.47192714 1.67871842,5.03656104 C1.62049686,4.60225621 1.65075948,4.1618821 1.77032486,3.71565805 C1.82665804,3.50541975 1.42111578,3.02707609 1.51055414,2.83886153 Z" id="Fill-210" fill="#FFFFFF" transform="translate(5.107723, 5.152428) rotate(66.000000) translate(-5.107723, -5.152428) "></path>
                <path d="M6.77895536,0.525423729 C6.78194962,0.800247283 6.74889651,1.06938929 6.67979604,1.33284974 C6.57085084,1.74822684 7.29771536,2.77254756 7.04399155,3.10960883 C6.78940684,3.44680646 5.56986095,3.08397328 5.19764549,3.31367265 C4.87449339,3.513438 4.5185858,3.65406781 4.13153724,3.73474095 L4.13153724,0.525423729 L6.77895536,0.525423729 Z" id="Fill-211" fill="#FFFFFF" transform="translate(5.621806, 2.132992) rotate(-127.000000) translate(-5.621806, -2.132992) "></path>
                <ellipse id="Oval-1" fill="#A543FD" cx="5.6481775" cy="4.59322034" rx="2.78922345" ry="2.71186441"></ellipse>
                <path d="M7.55857242,4.3595661 C6.47947765,3.73648814 4.70017623,3.67921356 3.67017179,3.98337627 C3.50460349,4.03197288 3.32966339,3.94128814 3.27968051,3.78031186 C3.22969762,3.61976949 3.32296926,3.44968136 3.48853756,3.40065085 C4.67072203,3.05179661 6.63612044,3.11905085 7.87810586,3.83585085 C8.02671569,3.92176271 8.07580602,4.10877288 7.98744342,4.25326102 C7.89908082,4.39774915 7.70718225,4.44547797 7.55857242,4.3595661 M7.52331664,5.2820339 C7.44744976,5.40178983 7.28679049,5.43910508 7.16406466,5.36577627 C6.26481902,4.82817627 4.89341363,4.67240678 3.82904596,4.98654915 C3.69114675,5.02690169 3.54521458,4.95140339 3.50326466,4.81732881 C3.46176101,4.68325424 3.53985927,4.54180339 3.6773122,4.50101695 C4.89296735,4.14261695 6.40405705,4.31617627 7.43718542,4.93361356 C7.55991125,5.00694237 7.59873724,5.16314576 7.52331664,5.2820339 M7.1136355,6.16848814 C7.05338827,6.26437966 6.92530713,6.29431864 6.82668019,6.23574237 C6.04078859,5.7688678 5.05139525,5.66343051 3.88661553,5.9220339 C3.77415404,5.9472 3.66213883,5.87864407 3.63670111,5.76973559 C3.61081712,5.66039322 3.68088241,5.55148475 3.79379017,5.52675254 C5.0688,5.24341695 6.16217559,5.36534237 7.04446276,5.88949153 C7.14264342,5.9476339 7.17388273,6.07259661 7.1136355,6.16848814 M5.57844691,1.47457627 C3.72997274,1.47457627 2.23137876,2.93160678 2.23137876,4.72881356 C2.23137876,6.52602034 3.72997274,7.98305085 5.57844691,7.98305085 C7.42736735,7.98305085 8.92551506,6.52602034 8.92551506,4.72881356 C8.92551506,2.93160678 7.42736735,1.47457627 5.57844691,1.47457627" id="Fill-703" fill="#FFFFFF"></path>
            </g>
            <g id="Group" transform="translate(0.000000, 1.474576)" sketch:type="MSShapeGroup">
                <path d="M4.20041663,2.74154198 L5.23120698,2.234375 L5.29952456,2.07627119 L4.20041663,2.74154198 Z" id="Rectangle-23" fill="#A543FD"></path>
                <path d="M5.88259893,1.67007084 L6.01734443,1.83208918 L7.23710195,1.14201536 L5.88259893,1.67007084 Z" id="Rectangle-22" fill="#A543FD"></path>
                <path d="M2.19651347,3.77966102 L2.46118667,4.078125 L3.39172228,3.30917307 L2.19651347,3.77966102 Z" id="Rectangle-24" fill="#A543FD"></path>
                <path d="M7.36422067,1.08078158 L8.35847737,0.733183263 L8.47226624,0.491525424 L7.36422067,1.08078158 Z" id="Rectangle-25" fill="#A543FD"></path>
                <path d="M8.20800274,3.33485533 C9.90775043,2.29849736 10.9475487,1.27722169 10.709102,0.765871106 C10.3827814,0.0660742853 7.78605184,0.586296983 4.90914426,1.92782102 C2.03223667,3.26934506 -0.0354226028,4.92416258 0.290898014,5.6239594 C0.502360681,6.07744256 1.66723942,6.01860116 3.24394374,5.55593619 L3.27136357,5.28635206 C1.82656936,5.75168797 0.780974343,5.87332361 0.621400536,5.53111648 C0.373048476,4.99852377 2.36487432,3.54408711 5.07026808,2.28254128 C7.77566184,1.02099545 10.1701459,0.430062191 10.418498,0.962654901 C10.5845303,1.31871242 9.74933607,2.08677949 8.36906017,2.93377779 L8.20800274,3.33485533 Z" id="Oval-9" fill="#FFFFFF" transform="translate(5.500000, 3.194915) rotate(-6.000000) translate(-5.500000, -3.194915) "></path>
            </g>
            <ellipse id="Oval-11" fill="#FFFFFF" sketch:type="MSShapeGroup" cx="0.749603803" cy="7.42372881" rx="0.400950872" ry="0.389830508"></ellipse>
        </g>
    </g>
</svg>