<?xml version="1.0" encoding="UTF-8" standalone="no"?>
<svg width="19px" height="15px" viewBox="0 0 19 15" version="1.1" xmlns="http://www.w3.org/2000/svg" xmlns:xlink="http://www.w3.org/1999/xlink" xmlns:sketch="http://www.bohemiancoding.com/sketch/ns">
    <!-- Generator: Sketch 3.1.1 (8761) - http://www.bohemiancoding.com/sketch -->
    <title>Fill 210 + Oval 1 + Group 5</title>
    <desc>Created with Sketch.</desc>
    <defs></defs>
    <g id="Page-1" stroke="none" stroke-width="1" fill="none" fill-rule="evenodd" sketch:type="MSPage">
        <g id="Fill-210-+-Oval-1-+-Group-5" sketch:type="MSLayerGroup">
            <g id="Fill-210-+-Oval-1" transform="translate(0.507132, 0.000000)" fill="#FFFFFF" sketch:type="MSShapeGroup">
                <path d="M2.80762828,5.0884881 C2.98876733,4.70554237 4.06758965,4.85255859 4.32244406,4.52065349 C4.80704331,3.89086141 5.37541411,3.37867595 6.02837679,2.98103553 C6.68092931,2.58492589 7.38924202,2.32844969 8.15413526,2.20854535 C8.92050195,2.08903582 9.69341181,2.13370795 10.4743383,2.34295657 C11.2552648,2.55220519 11.9469604,2.89997291 12.5494252,3.38625974 C13.15189,3.87254657 15.3710451,3.41744147 15.7381173,4.08675874 C16.1047794,4.75760679 14.6098807,6.51752378 14.7131865,7.30484453 C14.8169024,8.09063449 14.7603912,8.8909159 14.5434098,9.70070157 C14.3260182,10.512018 13.9748177,11.2333377 13.4912817,11.8650554 C13.0073355,12.4983038 12.4374913,13.0100945 11.7857591,13.4031425 C11.1336168,13.7977214 10.7933335,16.2863813 10.0280301,16.4078165 C9.26190633,16.5323132 8.1194936,14.2550625 7.33856712,14.0458139 C6.55764065,13.8365652 5.86594501,13.4887975 5.26323727,12.9975235 C4.66118264,12.5097059 4.17600394,11.9334346 3.80852153,11.2656482 C3.44062895,10.5993925 3.20449813,9.87164145 3.10053925,9.08086432 C2.99764365,8.29201279 3.05415492,7.49173138 3.27154651,6.68041492 C3.37397048,6.29816347 2.64567478,5.4308737 2.80762828,5.0884881 Z" id="Fill-210" transform="translate(9.286769, 9.274371) rotate(66.000000) translate(-9.286769, -9.274371) "></path>
                <path d="M12.3234211,0.945762712 C12.3271267,1.43687102 12.2662586,1.91799584 12.140817,2.38913717 C11.9416164,3.13730683 13.2599872,4.97949795 12.7978372,5.58707098 C12.3341219,6.19489193 10.1183277,5.54505677 9.44109265,5.9596635 C8.8558785,6.31854981 8.21184424,6.57205152 7.5118859,6.71870647 L7.5118859,0.945762712 L12.3234211,0.945762712 Z" id="Fill-211" transform="translate(10.221466, 3.839386) rotate(-127.000000) translate(-10.221466, -3.839386) "></path>
                <path d="M13.742859,7.84721898 C11.7808685,6.72567864 8.54577496,6.62258441 6.67303962,7.17007729 C6.37200634,7.25755119 6.05393344,7.09431864 5.96305547,6.80456136 C5.8721775,6.51558508 6.04176228,6.20942644 6.34279556,6.12117153 C8.49222187,5.4932339 12.0656735,5.61429153 14.3238288,6.90453153 C14.5940285,7.05917288 14.6832837,7.39579119 14.5226244,7.65586983 C14.3619651,7.91594847 14.0130586,8.00186034 13.742859,7.84721898 M13.6787575,9.50766102 C13.5408177,9.72322169 13.24871,9.79038915 13.0255721,9.65839729 C11.39058,8.69071729 8.89711569,8.4103322 6.96190174,8.97578847 C6.71117591,9.04842305 6.44584469,8.9125261 6.36957211,8.67119186 C6.29411094,8.42985763 6.43610777,8.1752461 6.68602219,8.10183051 C8.89630428,7.45671051 11.6437401,7.76911729 13.5221553,8.88050441 C13.7452932,9.01249627 13.8158859,9.29366237 13.6787575,9.50766102 M12.9338827,11.1032786 C12.8243423,11.2758834 12.5914675,11.3297736 12.4121458,11.2243363 C10.983252,10.383962 9.18435499,10.1941749 7.06657369,10.659661 C6.86209826,10.70496 6.65843423,10.5815593 6.61218384,10.3855241 C6.56512203,10.1887078 6.69251347,9.99267254 6.89780032,9.94815458 C9.216,9.43815051 11.2039556,9.65761627 12.8081141,10.6010847 C12.9866244,10.705741 13.0434231,10.9306739 12.9338827,11.1032786 M10.1426307,2.65423729 C6.78176862,2.65423729 4.0570523,5.2768922 4.0570523,8.51186441 C4.0570523,11.7468366 6.78176862,14.3694915 10.1426307,14.3694915 C13.5043043,14.3694915 16.2282092,11.7468366 16.2282092,8.51186441 C16.2282092,5.2768922 13.5043043,2.65423729 10.1426307,2.65423729" id="Fill-703"></path>
                <ellipse id="Oval-1" cx="10.2694136" cy="8.26779661" rx="5.07131537" ry="4.88135593"></ellipse>
            </g>
            <g id="Group" transform="translate(0.000000, 2.654237)" sketch:type="MSShapeGroup">
                <path d="M6.9034658,4.41765362 L11.2636942,8.73427973 L12.9795978,2.6744684 L6.9034658,4.41765362 Z" id="Rectangle-47" fill="#A543FD" transform="translate(9.941532, 5.704374) rotate(-315.000000) translate(-9.941532, -5.704374) "></path>
                <path d="M9.91177646,3.56294777 L10.2033026,3.80767922 L11.0579723,2.89840675 L9.91177646,3.56294777 Z" id="Rectangle-44" fill="#A543FD"></path>
                <path d="M7.55894886,5.01301125 L8.91978871,4.38191261 L8.99831321,4.22926857 L7.55894886,5.01301125 Z" id="Rectangle-45" fill="#A543FD"></path>
                <path d="M14.936757,5.97040447 C18.0153615,4.09456347 19.8992387,2.25256181 19.4710945,1.33440355 C18.8837174,0.0747692745 14.1672007,1.03094322 8.93645966,3.47007784 C3.70571859,5.90921246 -0.0584716302,8.90765709 0.52890548,10.1672914 C0.90984487,10.9842185 3.02753419,10.8691586 5.89588765,10.0220196 L5.94580307,9.53617257 C3.31788534,10.3866185 1.41722594,10.613887 1.12981916,9.99754112 C0.682785449,9.03887425 4.30794752,6.40229399 9.22684526,4.1085743 C14.145743,1.81485462 18.4956899,0.732580475 18.9427236,1.69124735 C19.240761,2.3303906 17.7287524,3.71534779 15.2300689,5.24728116 L14.936757,5.97040447 Z" id="Oval-9" fill="#FFFFFF" transform="translate(10.000000, 5.750847) rotate(-6.000000) translate(-10.000000, -5.750847) "></path>
            </g>
            <ellipse id="Oval-11" fill="#FFFFFF" sketch:type="MSShapeGroup" cx="1.36291601" cy="13.3627119" rx="0.729001585" ry="0.701694915"></ellipse>
        </g>
    </g>
</svg>